<svg width="12" height="11" viewBox="0 0 12 11" fill="none" xmlns="http://www.w3.org/2000/svg">
<path fill-rule="evenodd" clip-rule="evenodd" d="M6.95617 10.6243C6.40097 11.0727 5.59707 11.0727 5.04187 10.6243C4.8836 10.497 4.61955 10.2748 4.28425 9.97717C3.72841 9.48216 3.17108 8.95351 2.64749 8.40219C2.10644 7.84198 1.60686 7.24505 1.15251 6.6159C0.473096 5.77368 0.0720921 4.75019 0.00257892 3.68092C-0.0358105 2.68663 0.355822 1.72231 1.082 1.02305C2.42599 -0.258701 4.54283 -0.353093 6.00127 0.803696C7.45914 -0.354783 9.57728 -0.260333 10.9205 1.02305C11.6432 1.72024 12.0337 2.68023 11.9977 3.67068C11.9312 4.74224 11.5302 5.76838 10.8485 6.61152C10.3931 7.24265 9.89171 7.84108 9.3483 8.40219C8.82471 8.95131 8.26963 9.48216 7.71379 9.97717C7.37849 10.2748 7.1137 10.4963 6.95617 10.6243Z" fill="#FF4876"/>
</svg>
